<svg xmlns="http://www.w3.org/2000/svg" width="32" height="32" viewBox="0 0 32 32"><defs><style>.a{fill:#720d5d;}.b{fill:#f78f00;}</style></defs><g transform="translate(-1 -1)"><path class="a" d="M13.645,37H9.516A.516.516,0,0,0,9,37.516v7.226a.516.516,0,0,0,.516.516h4.129a.516.516,0,0,0,.516-.516V37.516A.516.516,0,0,0,13.645,37Zm-.516,7.226h-3.1V38.032h3.1Z" transform="translate(-3.871 -17.419)"/><path class="a" d="M32.038,5.717a8.834,8.834,0,0,0-15.633,0,8.406,8.406,0,0,0-.93,4.573H7.708a.515.515,0,0,0-.365.151l-5.009,5.01H1.516A.516.516,0,0,0,1,15.968v2.065a.516.516,0,0,0,.516.516H3.064V29.9H2.548a.516.516,0,0,0-.516.516v2.065A.516.516,0,0,0,2.548,33h25.8a.516.516,0,0,0,.516-.516V30.419a.516.516,0,0,0-.516-.516h-.516V19.28h-.02l.55-.731h1.018a.516.516,0,0,0,.516-.516V16.512l1.5-2a8.336,8.336,0,0,0,.636-8.8ZM7.922,11.323h7.7a8.621,8.621,0,0,0,1.425,3.2l.7.926H3.794Zm-5.89,5.161H18.524l.777,1.032H2.032Zm25.8,15.484H3.064V30.935H27.834ZM18.545,29.9h-2.58V23.71h2.58Zm-3.612,0h-2.58V23.71h2.58Zm11.869,0H19.577v-6.71a.516.516,0,0,0-.516-.516H11.837a.516.516,0,0,0-.516.516V29.9H4.1V18.548H20.078l.82,1.09a.512.512,0,0,0-.289.458v7.226a.516.516,0,0,0,.516.516h4.128a.516.516,0,0,0,.516-.516V22L26.8,20.624Zm-5.16-9.279L23.809,23.5a.516.516,0,0,0,.825,0l.1-.138v3.441h-3.1Zm2.58,1.711-6.339-8.42a7.32,7.32,0,0,1-.56-7.725,7.8,7.8,0,0,1,13.8,0,7.316,7.316,0,0,1-.552,7.714Z" transform="translate(0 0)"/><path class="b" d="M40.677,7a5.677,5.677,0,1,0,5.677,5.677A5.684,5.684,0,0,0,40.677,7Zm0,10.323a4.645,4.645,0,1,1,4.645-4.645A4.651,4.651,0,0,1,40.677,17.323Z" transform="translate(-16.458 -2.903)"/><path class="b" d="M38.432,7a3.432,3.432,0,1,0,3.432,3.432A3.436,3.436,0,0,0,38.432,7Z" transform="translate(-14.212 -0.658)"/></g></svg>