<svg xmlns="http://www.w3.org/2000/svg" width="134.462" height="40" viewBox="0 0 134.462 40"><defs><style>.a{fill:#632466;}.b{fill:#f9b616;}.c{fill:#37b34a;}.d{fill:#eb008b;}</style></defs><path class="a" d="M0,175.186v3.209l17.661,10.2,17.662-10.2V173.57l-19.014,12.3Z" transform="translate(0 -148.593)"/><path class="b" d="M30.492,5.5,22.638.963l-9.883,9.11-2.56-1.232L18.239,0,2.27,9.22,12.281,15Z" transform="translate(-1.943)"/><path class="c" d="M30.056,44.26,11.76,56.969,0,48.377V53.26l12.516,6.933,22.807-8.751V47.3Z" transform="translate(0 -37.891)"/><path class="d" d="M0,111.1v5.9l19.248,9.853,16.075-12.823v-5.3L17.162,121.539Z" transform="translate(0 -93.075)"/><path class="a" d="M327.656,83.5a13.3,13.3,0,0,1-.154,2.065,7.825,7.825,0,0,1-.577,1.976,6.589,6.589,0,0,1-11.774,0,7.494,7.494,0,0,1-.564-1.976,12.276,12.276,0,0,1-.167-2.065V71.38h1.95V83.5a12.068,12.068,0,0,0,.128,1.8,5.164,5.164,0,0,0,.525,1.718,4.571,4.571,0,0,0,8.03,0,5.173,5.173,0,0,0,.525-1.718,10.816,10.816,0,0,0,.141-1.8V71.38h1.937Z" transform="translate(-269.175 -61.108)"/><path class="a" d="M444.568,81.783a6.181,6.181,0,0,1-4.1,1.8l5.49,7.247H443.5l-6.592-8.8,2.1-.013a7.732,7.732,0,0,0,2.078-.282,4.006,4.006,0,0,0,3.206-4.117,3.932,3.932,0,0,0-2.13-3.733,5.862,5.862,0,0,0-1.835-.616,13.323,13.323,0,0,0-1.95-.115H435V90.824h-1.95V71.38h4.937q.654,0,1.18.026.68.039,1.243.1a7.9,7.9,0,0,1,2.361.616,5.712,5.712,0,0,1,3.462,5.542,5.591,5.591,0,0,1-1.666,4.117" transform="translate(-370.734 -61.108)"/><path class="a" d="M555.832,89.144a6.448,6.448,0,0,1-2.989,1.475,10.068,10.068,0,0,1-1.59.18q-.371.013-.859.026H543.3V71.38h5.991q1.129,0,1.718.039a9.4,9.4,0,0,1,1.642.217,5.327,5.327,0,0,1,2.861,1.642,4.584,4.584,0,0,1,1.154,3.208,4.19,4.19,0,0,1-2.258,3.911,4.373,4.373,0,0,1,3.206,4.514,5.251,5.251,0,0,1-1.781,4.234m-4.5-13.121a2.639,2.639,0,0,0-1.36-.282h-1.911v3.028h1.887q1.975,0,1.974-1.553a1.266,1.266,0,0,0-.59-1.193m.809,7.208a3.361,3.361,0,0,0-1.59-.308H548.06v3.54h2.462a2.926,2.926,0,0,0,1.629-.384,1.654,1.654,0,0,0,.705-1.475,1.455,1.455,0,0,0-.718-1.373" transform="translate(-465.119 -61.108)"/><path class="a" d="M673.028,86.17a10.564,10.564,0,0,1-14.455.052,9.269,9.269,0,0,1-3.054-7.015,11.4,11.4,0,0,1,.757-4.156,8.921,8.921,0,0,1,1.269-2.182,9.772,9.772,0,0,1,8.221-3.989,10.012,10.012,0,0,1,7.26,2.9,10.131,10.131,0,0,1,0,14.391m-3.4-11.184a4.88,4.88,0,0,0-3.835-1.744,4.934,4.934,0,0,0-3.848,1.692,5.736,5.736,0,0,0-1.462,3.976,5.878,5.878,0,0,0,1.475,4.054,4.953,4.953,0,0,0,3.887,1.731,4.8,4.8,0,0,0,3.783-1.744,5.836,5.836,0,0,0,1.436-3.963,5.9,5.9,0,0,0-1.436-4" transform="translate(-561.19 -58.968)"/><path class="a" d="M813.655,90.824l-4.206-6.887-3.989,6.887h-5.54l6.8-10.351L800.7,71.38h5.631l3.334,5.555L812.9,71.38h5.592l-5.939,9.2,6.72,10.247Z" transform="translate(-684.811 -61.108)"/></svg>